<?xml version="1.0" encoding="UTF-8" standalone="no"?>
<svg
   xmlns:dc="http://purl.org/dc/elements/1.1/"
   xmlns:cc="http://creativecommons.org/ns#"
   xmlns:rdf="http://www.w3.org/1999/02/22-rdf-syntax-ns#"
   xmlns:svg="http://www.w3.org/2000/svg"
   xmlns="http://www.w3.org/2000/svg"
   xmlns:sodipodi="http://sodipodi.sourceforge.net/DTD/sodipodi-0.dtd"
   xmlns:inkscape="http://www.inkscape.org/namespaces/inkscape"
   viewBox="0 0 106.78 70.26"
   version="1.1"
   id="svg3747"
   sodipodi:docname="logo.svg"
   inkscape:version="0.92.4 (5da689c313, 2019-01-14)">
  <metadata
     id="metadata3751">
    <rdf:RDF>
      <cc:Work
         rdf:about="">
        <dc:format>image/svg+xml</dc:format>
        <dc:type
           rdf:resource="http://purl.org/dc/dcmitype/StillImage" />
        <dc:title>Risorsa 1</dc:title>
      </cc:Work>
    </rdf:RDF>
  </metadata>
  <sodipodi:namedview
     pagecolor="#ffffff"
     bordercolor="#666666"
     borderopacity="1"
     objecttolerance="10"
     gridtolerance="10"
     guidetolerance="10"
     inkscape:pageopacity="0"
     inkscape:pageshadow="2"
     inkscape:window-width="1391"
     inkscape:window-height="830"
     id="namedview3749"
     showgrid="false"
     inkscape:zoom="5.4879191"
     inkscape:cx="62.071189"
     inkscape:cy="27.882066"
     inkscape:window-x="0"
     inkscape:window-y="150"
     inkscape:window-maximized="0"
     inkscape:current-layer="cilinder" />
  <defs
     id="defs3735">
    <style
       id="style3733">.cls-1{fill:none;stroke:#000;stroke-linecap:round;stroke-miterlimit:10;stroke-width:5px;}</style>
  </defs>
  <title
     id="title3737">Risorsa 1</title>
  <g
     id="cilinder">
    <path
       style="color:#ffffff;font-style:normal;font-variant:normal;font-weight:normal;font-stretch:normal;font-size:medium;line-height:normal;font-family:sans-serif;font-variant-ligatures:normal;font-variant-position:normal;font-variant-caps:normal;font-variant-numeric:normal;font-variant-alternates:normal;font-feature-settings:normal;text-indent:0;text-align:start;text-decoration:none;text-decoration-line:none;text-decoration-style:solid;text-decoration-color:#000000;letter-spacing:normal;word-spacing:normal;text-transform:none;writing-mode:lr-tb;direction:ltr;text-orientation:mixed;dominant-baseline:auto;baseline-shift:baseline;text-anchor:start;white-space:normal;shape-padding:0;clip-rule:nonzero;display:inline;overflow:visible;visibility:visible;opacity:1;isolation:auto;mix-blend-mode:normal;color-interpolation:sRGB;color-interpolation-filters:linearRGB;solid-color:#000000;solid-opacity:1;vector-effect:none;fill:#ffffff;fill-opacity:1;fill-rule:nonzero;stroke:none;stroke-width:5px;stroke-linecap:round;stroke-linejoin:miter;stroke-miterlimit:10;stroke-dasharray:none;stroke-dashoffset:0;stroke-opacity:1;color-rendering:auto;image-rendering:auto;shape-rendering:auto;text-rendering:auto;enable-background:accumulate"
       d="m 86.279296,-0.1822188 c -2.884734,0 -5.629136,0.60835 -8.123047,1.691406 a 2.50025,2.50025 0 0 0 -0.212891,0.08399 L 14.214843,29.942781 a 2.50025,2.50025 0 1 0 2.03125,4.568359 L 67.759765,11.597078 c -1.255814,2.651693 -1.980469,5.600406 -1.980469,8.720703 0,11.292226 9.207774,20.5 20.5,20.5 11.292231,0 20.500004,-9.207774 20.500004,-20.5 0,-11.2922258 -9.207773,-20.4999998 -20.500004,-20.4999998 z m 0,5 c 8.590021,0 15.500004,6.9099748 15.500004,15.4999998 0,8.590025 -6.909983,15.5 -15.500004,15.5 -8.590025,0 -15.5,-6.909975 -15.5,-15.5 0,-6.281551 3.703801,-11.6501738 9.048828,-14.0898438 l 0.148437,-0.06641 a 2.50025,2.50025 0 0 0 0.25,-0.125 2.50025,2.50025 0 0 0 0.0078,-0.0039 c 1.855782,-0.78203 3.897416,-1.214844 6.044922,-1.214844 z M 5.9199222,36.569734 A 2.50025,2.50025 0 0 0 3.8496094,37.640047 C -0.39455642,43.548618 -1.1883181,51.275063 1.765625,57.92325 l 0.00195,0.0039 0.00195,0.0039 c 4.6159472,10.282973 16.734756,14.940497 27.048833,10.394543 l 0.0039,-0.002 L 75.726554,47.4525 A 2.50025,2.50025 0 1 0 73.693351,42.88414 L 26.80078,63.749422 C 18.95111,67.209182 9.8508779,63.714982 6.3339842,55.892 V 55.89 C 4.0986525,50.857567 4.6975362,45.028554 7.9101559,40.556062 A 2.50025,2.50025 0 0 0 5.9199222,36.569734 Z"
       id="circle3739"
       inkscape:connector-curvature="0" />
  </g>
</svg>
